<svg
   xml:space="preserve"
   width="507"
   height="121"
   id="piano"

	<!-- 
		 Copyright (c)  2005 Lauri Kaila.
		 Permission is granted to copy, distribute and/or modify this document
		 under the terms of the GNU Free Documentation License, Version 1.2
		 or any later version published by the Free Software Foundation;
		 with no Invariant Sections, no Front-Cover Texts, and no Back-Cover Texts.
		 A copy of the license is included in the section entitled "GNU
		 Free Documentation License".
		 
		 
		 
		 Intented to create a keyboard where key widths are
		 accurately in position. 
		 
		 See http://www.mathpages.com/home/kmath043.htm
		 for the math.
		 
		 This keyboard has following properties (x=octave width).
		 1. All white keys have equal width in front (W=x/7).
		 2. All black keys have equal width (B=x/12).
		 3. The narrow part of white keys C, D and E is W - B*2/3
		 4. The narrow part of white keys F, G, A, and B is W - B*3/4
		 
	-->

	<!-- White keys Octave 1 -->
	<rect
	   style="fill:#ffffff;stroke:#000000"
	   x="0.5"
	   y="0.5"
	   width="23"
	   height="120"
	   id="C" />
	<rect
	   style="fill:#ffffff;stroke:#000000"
	   x="23.5"
	   y="0.5"
	   width="23"
	   height="120"
	   id="D" />
	<rect
	   style="fill:#ffffff;stroke:#000000"
	   x="46.5"
	   y="0.5"
	   width="23"
	   height="120"
	   id="E" />
	<rect
	   style="fill:#ffffff;stroke:#000000"
	   x="69.5"
	   y="0.5"
	   width="23"
	   height="120"
	   id="F" />
	<rect
	   style="fill:#ffffff;stroke:#000000"
	   x="92.5"
	   y="0.5"
	   width="23"
	   height="120"
	   id="G" />
	<rect
	   style="fill:#ffffff;stroke:#000000"
	   x="115.5"
	   y="0.5"
	   width="23"
	   height="120"
	   id="A" />
	<rect
	   style="fill:#ffffff;stroke:#000000"
	   x="138.5"
	   y="0.5"
	   width="23"
	   height="120"
	   id="B" />

	<!-- Black keys Octave 1 -->
	<rect
	   style="fill:#000000;stroke:#000000"
	   x="14.83333"
	   y="0.5"
	   width="13"
	   height="80"
	   id="Db" />
	<rect
	   style="fill:#000000;stroke:#000000"
	   x="42.16666"
	   y="0.5"
	   width="13"
	   height="80"
	   id="Eb" />
	<rect
	   style="fill:#000000;stroke:#000000"
	   x="82.75"
	   y="0.5"
	   width="13"
	   height="80"
	   id="Gb" />
	<rect
	   style="fill:#000000;stroke:#000000"
	   x="108.75"
	   y="0.5"
	   width="13"
	   height="80"
	   id="Ab" />
	<rect
	   style="fill:#000000;stroke:#000000"
	   x="135.25"
	   y="0.5"
	   width="13"
	   height="80"
	   id="Bb" />
	   
	<!-- White Keys Octave 2 -->   
	<rect
	   style="fill:#ffffff;stroke:#000000"
	   x="161.5"
	   y="0.5"
	   width="23"
	   height="120"
	   id="C-2" /><rect
	   style="fill:#ffffff;stroke:#000000"
	   x="184.5"
	   y="0.5"
	   width="23"
	   height="120"
	   id="D-2" /><rect
	   style="fill:#ffffff;stroke:#000000"
	   x="207.5"
	   y="0.5"
	   width="23"
	   height="120"
	   id="E-2" /><rect
	   style="fill:#ffffff;stroke:#000000"
	   x="230.5"
	   y="0.5"
	   width="23"
	   height="120"
	   id="F-2" /><rect
	   style="fill:#ffffff;stroke:#000000"
	   x="253.5"
	   y="0.5"
	   width="23"
	   height="120"
	   id="G-2" /><rect
	   style="fill:#ffffff;stroke:#000000"
	   x="276.5"
	   y="0.5"
	   width="23"
	   height="120"
	   id="A-2" /><rect
	   style="fill:#ffffff;stroke:#000000"
	   x="299.5"
	   y="0.5"
	   width="23"
	   height="120"
	   id="B-2" />


	<!-- Black Keys Octave 2 -->   
	<rect
	   style="fill:#000000;stroke:#000000"
	   x="175.83333"
	   y="0.5"
	   width="13"
	   height="80"
	   id="Db-2" /><rect
	   style="fill:#000000;stroke:#000000"
	   x="203.16666"
	   y="0.5"
	   width="13"
	   height="80"
	   id="Eb-2" /><rect
	   style="fill:#000000;stroke:#000000"
	   x="243.75"
	   y="0.5"
	   width="13"
	   height="80"
	   id="Gb-2" /><rect
	   style="fill:#000000;stroke:#000000"
	   x="269.75"
	   y="0.5"
	   width="13"
	   height="80"
	   id="Ab-2" /><rect
	   style="fill:#000000;stroke:#000000"
	   x="296.25"
	   y="0.5"
	   width="13"
	   height="80"
	   id="Bb-2" />

	<!-- White Keys Octave 3 -->
	<rect
	   style="fill:#ffffff;stroke:#000000"
	   x="322.5"
	   y="0.5"
	   width="23"
	   height="120"
	   id="C-3" /><rect
	   style="fill:#ffffff;stroke:#000000"
	   x="345.5"
	   y="0.5"
	   width="23"
	   height="120"
	   id="D-3" /><rect
	   style="fill:#ffffff;stroke:#000000"
	   x="368.5"
	   y="0.5"
	   width="23"
	   height="120"
	   id="E-3" /><rect
	   style="fill:#ffffff;stroke:#000000"
	   x="391.5"
	   y="0.5"
	   width="23"
	   height="120"
	   id="F-3" /><rect
	   style="fill:#ffffff;stroke:#000000"
	   x="414.5"
	   y="0.5"
	   width="23"
	   height="120"
	   id="G-3" /><rect
	   style="fill:#ffffff;stroke:#000000"
	   x="437.5"
	   y="0.5"
	   width="23"
	   height="120"
	   id="A-3" /><rect
	   style="fill:#ffffff;stroke:#000000"
	   x="460.5"
	   y="0.5"
	   width="23"
	   height="120"
	   id="B-3" />

	<!-- Black Keys Octave 3 -->   
	<rect
	   style="fill:#000000;stroke:#000000"
	   x="336.83334"
	   y="0.5"
	   width="13"
	   height="80"
	   id="Db-3" /><rect
	   style="fill:#000000;stroke:#000000"
	   x="364.16666"
	   y="0.5"
	   width="13"
	   height="80"
	   id="Eb-3" /><rect
	   style="fill:#000000;stroke:#000000"
	   x="404.75"
	   y="0.5"
	   width="13"
	   height="80"
	   id="Gb-3" /><rect
	   style="fill:#000000;stroke:#000000"
	   x="430.75"
	   y="0.5"
	   width="13"
	   height="80"
	   id="Ab-3" /><rect
	   style="fill:#000000;stroke:#000000"
	   x="457.25"
	   y="0.5"
	   width="13"
	   height="80"
	   id="Bb-3" />

	<!-- White Key Octave 4 -->   
	<rect
	   style="fill:#ffffff;stroke:#000000"
	   x="483.5"
	   y="0.5"
	   width="23"
	   height="120"
	   id="C-4" />
</svg>
